<?xml version="1.0" encoding="utf-8"?>
<!-- Generator: Adobe Illustrator 26.0.0, SVG Export Plug-In . SVG Version: 6.00 Build 0)  -->
<svg version="1.1" id="图层_1" xmlns="http://www.w3.org/2000/svg" xmlns:xlink="http://www.w3.org/1999/xlink" x="0px" y="0px"
	 viewBox="0 0 358.2 114.8" style="enable-background:new 0 0 358.2 114.8;" xml:space="preserve">
<style type="text/css">
	.st0{fill:url(#SVGID_1_);}
	.st1{fill:url(#SVGID_00000101814784230391324890000015748505649393824181_);}
	.st2{fill:url(#SVGID_00000066474752519991553510000002436131288591763614_);}
	.st3{fill:url(#SVGID_00000026841569328221316820000011132378901010377897_);}
	.st4{fill:url(#SVGID_00000060740416834699332200000003670698837328829333_);}
	.st5{fill:url(#SVGID_00000088112673242593989710000012481032397594741669_);}
	.st6{fill:url(#SVGID_00000134938324567461780630000016476548328229139378_);}
	.st7{fill:url(#SVGID_00000040564199543742280530000008804682857347307454_);}
	.st8{fill:url(#SVGID_00000143618826556883950260000007038010860614601371_);}
	.st9{fill:url(#SVGID_00000042698515876426227990000010149833621026112429_);}
	.st10{fill:url(#SVGID_00000101076146903942887070000011020785329434529704_);}
	.st11{fill:url(#SVGID_00000111166830578873809120000012282413116311558546_);}
	.st12{fill:url(#SVGID_00000084498743599487733750000002795742803540171691_);}
	.st13{fill:url(#SVGID_00000172408722749706080240000015728241630243077034_);}
	.st14{fill:url(#SVGID_00000083062084968005482340000011613860360937493926_);}
	.st15{fill:url(#SVGID_00000122700147180313958700000004364037450286634911_);}
	.st16{fill:url(#SVGID_00000163795118362515298890000004169471815912436891_);}
	.st17{fill:url(#SVGID_00000171682625682060943830000007027322786279534998_);}
	.st18{fill:url(#SVGID_00000183968600227911722400000016827843566440334724_);}
	.st19{fill:url(#SVGID_00000087405729790245785690000004501367594752317371_);}
	.st20{fill:url(#SVGID_00000144326776596959458940000010208334258642771893_);}
	.st21{fill:url(#SVGID_00000049184741513927088510000001770458677164732315_);}
	.st22{fill:url(#SVGID_00000024711006287688786080000000097787446844265380_);}
	.st23{fill:url(#SVGID_00000013910580701311693690000014315389273145927351_);}
	.st24{fill:url(#SVGID_00000054240425500992697710000006355816515872224139_);}
	.st25{fill:url(#SVGID_00000112604023831985956040000000892875210577177788_);}
	.st26{fill:url(#SVGID_00000152984249570703409540000017695282461140577172_);}
	.st27{fill:url(#SVGID_00000147179334464331613790000009786252760582167982_);}
	.st28{fill:url(#SVGID_00000110428301516364453790000011990247224368756146_);}
	.st29{fill:url(#SVGID_00000137848992767526540170000015700130351403368124_);}
	.st30{fill:url(#SVGID_00000165944734481614994210000001099676331925824897_);}
	.st31{fill:url(#SVGID_00000080165743302486494150000012860346138553301398_);}
	.st32{fill:url(#SVGID_00000109011860560680427940000014554916349770648458_);}
	.st33{fill:url(#SVGID_00000049223050678942462030000006602330230921704638_);}
	.st34{fill:url(#SVGID_00000083783810401275680690000011144052794274006680_);}
	.st35{fill:url(#SVGID_00000007402212393503226930000009631018424860968892_);}
	.st36{fill:#231815;}
	.st37{fill:url(#SVGID_00000013900806566197008410000016767549503990294938_);}
	.st38{fill:url(#SVGID_00000181089049912889235050000018126198558543241621_);}
	.st39{fill:url(#SVGID_00000000939847541391517150000016627726306679964820_);}
	.st40{fill:url(#SVGID_00000160176855253299486080000010766619824068509074_);}
	.st41{fill:url(#SVGID_00000087378127379865020580000012205516783526819255_);}
	.st42{fill:url(#SVGID_00000120552185265928201820000016605706187459169957_);}
</style>
<g>
	<g>
		
			<linearGradient id="SVGID_1_" gradientUnits="userSpaceOnUse" x1="301.169" y1="518.373" x2="314.669" y2="518.373" gradientTransform="matrix(1 0 0 1 -15.44 -486.99)">
			<stop  offset="0" style="stop-color:#0019F4"/>
			<stop  offset="0.42" style="stop-color:#0019F4"/>
			<stop  offset="1" style="stop-color:#7200F1"/>
		</linearGradient>
		<path class="st0" d="M297.4,32.6c-4.1,2.4-6.3,3.6-10.1,5.7c-0.9,0.5-1.6-0.7-1.6-2.6s0.7-3.9,1.6-4.5c3.8-2.4,5.9-3.8,10.1-6.6
			c1-0.7,1.8,0.5,1.8,2.8S298.4,32.1,297.4,32.6z"/>
		
			<linearGradient id="SVGID_00000132791926447708822520000016723449523865028998_" gradientUnits="userSpaceOnUse" x1="316.2189" y1="509.1872" x2="329.839" y2="509.1872" gradientTransform="matrix(1 0 0 1 -15.44 -486.99)">
			<stop  offset="0" style="stop-color:#0019F4"/>
			<stop  offset="0.42" style="stop-color:#0019F4"/>
			<stop  offset="1" style="stop-color:#7200F1"/>
		</linearGradient>
		<path style="fill:url(#SVGID_00000132791926447708822520000016723449523865028998_);" d="M312.8,23.8c-3.8,2.1-5.9,3.3-10.3,5.9
			c-1,0.6-1.8-0.8-1.8-3.1s0.8-4.6,1.8-5.2c4.4-2.9,6.6-4.3,10.3-6.7c0.8-0.5,1.5,1,1.5,3.6S313.7,23.3,312.8,23.8z"/>
		
			<linearGradient id="SVGID_00000173878664423149774110000011145069413856112559_" gradientUnits="userSpaceOnUse" x1="320.4289" y1="495.6119" x2="329.839" y2="495.6119" gradientTransform="matrix(1 0 0 1 -15.44 -486.99)">
			<stop  offset="0" style="stop-color:#0019F4"/>
			<stop  offset="0.42" style="stop-color:#0019F4"/>
			<stop  offset="1" style="stop-color:#7200F1"/>
		</linearGradient>
		<path style="fill:url(#SVGID_00000173878664423149774110000011145069413856112559_);" d="M312.9,10.4c-2.3,1.5-3.6,2.4-6.2,4.2
			c-1,0.6-1.7-0.6-1.7-2.6c0-2.1,0.8-4.2,1.8-4.9l6.2-4.4c0.8-0.6,1.4,0.5,1.4,2.7S313.7,9.8,312.9,10.4z"/>
		
			<linearGradient id="SVGID_00000168117596109125050920000017430684965664343460_" gradientUnits="userSpaceOnUse" x1="301.169" y1="506.1863" x2="318.9091" y2="506.1863" gradientTransform="matrix(1 0 0 1 -15.44 -486.99)">
			<stop  offset="0" style="stop-color:#0019F4"/>
			<stop  offset="0.42" style="stop-color:#0019F4"/>
			<stop  offset="1" style="stop-color:#7200F1"/>
		</linearGradient>
		<path style="fill:url(#SVGID_00000168117596109125050920000017430684965664343460_);" d="M301.6,18.1c-5.9,4-9,6.2-14.3,9.7
			c-0.9,0.6-1.6-0.5-1.6-2.4s0.7-4,1.6-4.6l14.4-10.1c1-0.7,1.8,0.3,1.8,2.3C303.4,15.1,302.6,17.4,301.6,18.1z"/>
		
			<linearGradient id="SVGID_00000155846442215243974770000009838236346881872788_" gradientUnits="userSpaceOnUse" x1="301.169" y1="530.7853" x2="311.129" y2="530.7853" gradientTransform="matrix(1 0 0 1 -15.44 -486.99)">
			<stop  offset="0" style="stop-color:#0019F4"/>
			<stop  offset="0.42" style="stop-color:#0019F4"/>
			<stop  offset="1" style="stop-color:#7200F1"/>
		</linearGradient>
		<path style="fill:url(#SVGID_00000155846442215243974770000009838236346881872788_);" d="M293.9,46.5c-2.7,1.1-4,1.6-6.5,2.6
			c-0.9,0.3-1.6-0.9-1.6-2.8s0.7-3.8,1.6-4.3c2.5-1.3,3.8-2,6.5-3.4c1-0.5,1.8,0.8,1.8,3.1S294.8,46.1,293.9,46.5z"/>
		
			<linearGradient id="SVGID_00000023280608346136190560000008609810559608633509_" gradientUnits="userSpaceOnUse" x1="301.169" y1="553.3135" x2="314.589" y2="553.3135" gradientTransform="matrix(1 0 0 1 -15.44 -486.99)">
			<stop  offset="0" style="stop-color:#0019F4"/>
			<stop  offset="0.42" style="stop-color:#0019F4"/>
			<stop  offset="1" style="stop-color:#7200F1"/>
		</linearGradient>
		<path style="fill:url(#SVGID_00000023280608346136190560000008609810559608633509_);" d="M297.3,70.6c-4,0-6.1,0-10-0.1
			c-0.9,0-1.7-1.6-1.7-3.5s0.7-3.5,1.7-3.6c3.9-0.4,5.9-0.7,10-1.3c1-0.1,1.8,1.7,1.8,4.2C299.1,68.6,298.3,70.6,297.3,70.6z"/>
		
			<linearGradient id="SVGID_00000168815331134473980730000003351595453774071223_" gradientUnits="userSpaceOnUse" x1="316.0815" y1="552.4641" x2="329.8416" y2="552.4641" gradientTransform="matrix(1 0 0 1 -15.44 -486.99)">
			<stop  offset="0" style="stop-color:#0019F4"/>
			<stop  offset="0.42" style="stop-color:#0019F4"/>
			<stop  offset="1" style="stop-color:#7200F1"/>
		</linearGradient>
		<path style="fill:url(#SVGID_00000168815331134473980730000003351595453774071223_);" d="M312.7,70.9c-4-0.2-6.1-0.2-10.4-0.3
			c-1,0-1.8-2-1.7-4.5c0-2.5,0.8-4.6,1.8-4.8c4.3-0.6,6.5-0.9,10.4-1.2c0.9-0.1,1.6,2.3,1.6,5.4C314.3,68.6,313.6,70.9,312.7,70.9z"
			/>
		
			<linearGradient id="SVGID_00000133511458647423202170000016167933170292330130_" gradientUnits="userSpaceOnUse" x1="320.19" y1="536.9593" x2="329.8401" y2="536.9593" gradientTransform="matrix(1 0 0 1 -15.44 -486.99)">
			<stop  offset="0" style="stop-color:#0019F4"/>
			<stop  offset="0.42" style="stop-color:#0019F4"/>
			<stop  offset="1" style="stop-color:#7200F1"/>
		</linearGradient>
		<path style="fill:url(#SVGID_00000133511458647423202170000016167933170292330130_);" d="M312.8,54.8c-2.4,0.4-3.7,0.6-6.4,1.1
			c-1,0.2-1.7-1.8-1.7-4.5c0-2.6,0.8-5,1.8-5.3c2.6-0.9,3.9-1.3,6.3-2c0.9-0.3,1.6,2,1.6,5S313.6,54.7,312.8,54.8z"/>
		
			<linearGradient id="SVGID_00000000184124638195556710000001919388589871396524_" gradientUnits="userSpaceOnUse" x1="301.169" y1="540.6581" x2="318.6991" y2="540.6581" gradientTransform="matrix(1 0 0 1 -15.44 -486.99)">
			<stop  offset="0" style="stop-color:#0019F4"/>
			<stop  offset="0.42" style="stop-color:#0019F4"/>
			<stop  offset="1" style="stop-color:#7200F1"/>
		</linearGradient>
		<path style="fill:url(#SVGID_00000000184124638195556710000001919388589871396524_);" d="M301.4,56.9c-5.7,1.2-8.7,1.9-14.1,2.8
			c-0.9,0.2-1.7-1.3-1.7-3.2s0.7-3.7,1.6-4c5.4-1.7,8.4-2.8,14.1-4.8c1-0.3,1.8,1.5,1.8,4S302.4,56.7,301.4,56.9z"/>
		
			<linearGradient id="SVGID_00000121961458493278848330000012367068109893122481_" gradientUnits="userSpaceOnUse" x1="301.169" y1="576.8643" x2="314.5091" y2="576.8643" gradientTransform="matrix(1 0 0 1 -15.44 -486.99)">
			<stop  offset="0" style="stop-color:#0019F4"/>
			<stop  offset="0.42" style="stop-color:#0019F4"/>
			<stop  offset="1" style="stop-color:#7200F1"/>
		</linearGradient>
		<path style="fill:url(#SVGID_00000121961458493278848330000012367068109893122481_);" d="M297.2,95.1c-4-1.3-6-2-9.9-3.3
			c-0.9-0.3-1.7-2.2-1.7-4.1s0.8-3.3,1.7-3c3.9,1,5.9,1.5,9.9,2.5c1,0.2,1.7,2.3,1.7,4.5C299,93.9,298.2,95.4,297.2,95.1z"/>
		
			<linearGradient id="SVGID_00000117646229255021594720000010601070677969869185_" gradientUnits="userSpaceOnUse" x1="315.9789" y1="581.4155" x2="329.839" y2="581.4155" gradientTransform="matrix(1 0 0 1 -15.44 -486.99)">
			<stop  offset="0" style="stop-color:#0019F4"/>
			<stop  offset="0.42" style="stop-color:#0019F4"/>
			<stop  offset="1" style="stop-color:#7200F1"/>
		</linearGradient>
		<path style="fill:url(#SVGID_00000117646229255021594720000010601070677969869185_);" d="M312.6,100.4c-4.1-1.5-6.2-2.2-10.5-3.6
			c-0.9-0.3-1.7-2.3-1.7-4.6s0.8-4,1.8-3.7c4.2,1,6.3,1.6,10.4,2.8c0.9,0.3,1.7,2.7,1.7,5.2S313.6,100.7,312.6,100.4z"/>
		
			<linearGradient id="SVGID_00000027579930156842620500000001372137288226694784_" gradientUnits="userSpaceOnUse" x1="320.0289" y1="567.871" x2="329.839" y2="567.871" gradientTransform="matrix(1 0 0 1 -15.44 -486.99)">
			<stop  offset="0" style="stop-color:#0019F4"/>
			<stop  offset="0.42" style="stop-color:#0019F4"/>
			<stop  offset="1" style="stop-color:#7200F1"/>
		</linearGradient>
		<path style="fill:url(#SVGID_00000027579930156842620500000001372137288226694784_);" d="M312.7,86.3c-2.5-0.6-3.8-0.9-6.5-1.4
			c-1-0.2-1.7-2.4-1.7-4.9s0.8-4.6,1.8-4.5c2.6,0.2,3.9,0.3,6.4,0.7c0.9,0.1,1.6,2.6,1.6,5.5S313.6,86.5,312.7,86.3z"/>
		
			<linearGradient id="SVGID_00000159471569725110605040000011518194963471823512_" gradientUnits="userSpaceOnUse" x1="301.169" y1="587.0142" x2="311.139" y2="587.0142" gradientTransform="matrix(1 0 0 1 -15.44 -486.99)">
			<stop  offset="0" style="stop-color:#0019F4"/>
			<stop  offset="0.42" style="stop-color:#0019F4"/>
			<stop  offset="1" style="stop-color:#7200F1"/>
		</linearGradient>
		<path style="fill:url(#SVGID_00000159471569725110605040000011518194963471823512_);" d="M293.9,104.9l-6.5-2.6
			c-1-0.4-1.7-2.2-1.7-4.2s0.8-3.2,1.7-2.9c2.6,1,3.9,1.4,6.5,2.4c1,0.3,1.7,2.3,1.7,4.3S294.9,105.2,293.9,104.9z"/>
		
			<linearGradient id="SVGID_00000147200491898598539930000012518411467914755249_" gradientUnits="userSpaceOnUse" x1="312.59" y1="592.8696" x2="329.84" y2="592.8696" gradientTransform="matrix(1 0 0 1 -15.44 -486.99)">
			<stop  offset="0" style="stop-color:#0019F4"/>
			<stop  offset="0.42" style="stop-color:#0019F4"/>
			<stop  offset="1" style="stop-color:#7200F1"/>
		</linearGradient>
		<path style="fill:url(#SVGID_00000147200491898598539930000012518411467914755249_);" d="M312.6,112.3c-5.6-2.2-8.3-3.3-13.8-5.5
			c-1-0.4-1.7-2.2-1.7-4.2s0.8-3.4,1.7-3.1c5.5,2,8.3,3,13.8,5.1c0.9,0.4,1.7,2.5,1.7,4.7S313.6,112.6,312.6,112.3z"/>
		
			<linearGradient id="SVGID_00000036963307007219567550000015151157682765498042_" gradientUnits="userSpaceOnUse" x1="332.49" y1="544.7794" x2="372.49" y2="544.7794" gradientTransform="matrix(1 0 0 1 -15.44 -486.99)">
			<stop  offset="0" style="stop-color:#0019F4"/>
			<stop  offset="0.42" style="stop-color:#0019F4"/>
			<stop  offset="1" style="stop-color:#7200F1"/>
		</linearGradient>
		<path style="fill:url(#SVGID_00000036963307007219567550000015151157682765498042_);" d="M354,16.8L325.5,1.1
			c-2.8-1.5-6.3-0.4-7.8,2.4c-0.4,0.8-0.7,1.8-0.7,2.7v103.2c0,3.2,2.5,5.8,5.7,5.8c0.6,0,1.2-0.1,1.7-0.3l28.5-9.1
			c2.4-0.8,4.1-3,4.1-5.5V21.9C357,19.7,355.9,17.8,354,16.8z M345.5,22.5l-11.7,3.1c-0.8,0.3-1.4,1-1.4,1.9v67.4
			c0,0.8,0.4,1.4,1.1,1.8l8.3,3.2c1,0.5,1.3,1.7,0.8,2.7c-0.3,0.6-1,1-1.7,1.1l-14.1,3.6c-1.1,0-2-0.9-2-2V11.5c0-1.1,0.9-2,2-2
			c0.3,0,0.6,0.1,0.8,0.2l18.1,9.1c1,0.5,1.4,1.7,0.9,2.7C346.4,21.9,346,22.3,345.5,22.5z"/>
		
			<linearGradient id="SVGID_00000083073642626055870990000015170873311000203159_" gradientUnits="userSpaceOnUse" x1="301.169" y1="518.373" x2="372.529" y2="518.373" gradientTransform="matrix(1 0 0 1 -15.44 -486.99)">
			<stop  offset="0" style="stop-color:#0019F4"/>
			<stop  offset="1" style="stop-color:#7200F1"/>
		</linearGradient>
		<path style="fill:url(#SVGID_00000083073642626055870990000015170873311000203159_);" d="M297.4,32.6c-4.1,2.4-6.3,3.6-10.1,5.7
			c-0.9,0.5-1.6-0.7-1.6-2.6s0.7-3.9,1.6-4.5c3.8-2.4,5.9-3.8,10.1-6.6c1-0.7,1.8,0.5,1.8,2.8S298.4,32.1,297.4,32.6z"/>
		
			<linearGradient id="SVGID_00000078745756655539940260000003078261506233044413_" gradientUnits="userSpaceOnUse" x1="301.169" y1="509.1872" x2="372.529" y2="509.1872" gradientTransform="matrix(1 0 0 1 -15.44 -486.99)">
			<stop  offset="0" style="stop-color:#0019F4"/>
			<stop  offset="1" style="stop-color:#7200F1"/>
		</linearGradient>
		<path style="fill:url(#SVGID_00000078745756655539940260000003078261506233044413_);" d="M312.8,23.8c-3.8,2.1-5.9,3.3-10.3,5.9
			c-1,0.6-1.8-0.8-1.8-3.1s0.8-4.6,1.8-5.2c4.4-2.9,6.6-4.3,10.3-6.7c0.8-0.5,1.5,1,1.5,3.6S313.7,23.3,312.8,23.8z"/>
		
			<linearGradient id="SVGID_00000067218286525960404880000010423816803522247824_" gradientUnits="userSpaceOnUse" x1="301.169" y1="495.6119" x2="372.529" y2="495.6119" gradientTransform="matrix(1 0 0 1 -15.44 -486.99)">
			<stop  offset="0" style="stop-color:#0019F4"/>
			<stop  offset="1" style="stop-color:#7200F1"/>
		</linearGradient>
		<path style="fill:url(#SVGID_00000067218286525960404880000010423816803522247824_);" d="M312.9,10.4c-2.3,1.5-3.6,2.4-6.2,4.2
			c-1,0.6-1.7-0.6-1.7-2.6c0-2.1,0.8-4.2,1.8-4.9l6.2-4.4c0.8-0.6,1.4,0.5,1.4,2.7S313.7,9.8,312.9,10.4z"/>
		
			<linearGradient id="SVGID_00000139280945171509944360000013997280609754611093_" gradientUnits="userSpaceOnUse" x1="301.169" y1="506.1863" x2="372.529" y2="506.1863" gradientTransform="matrix(1 0 0 1 -15.44 -486.99)">
			<stop  offset="0" style="stop-color:#0019F4"/>
			<stop  offset="1" style="stop-color:#7200F1"/>
		</linearGradient>
		<path style="fill:url(#SVGID_00000139280945171509944360000013997280609754611093_);" d="M301.6,18.1c-5.9,4-9,6.2-14.3,9.7
			c-0.9,0.6-1.6-0.5-1.6-2.4s0.7-4,1.6-4.6l14.4-10.1c1-0.7,1.8,0.3,1.8,2.3C303.4,15.1,302.6,17.4,301.6,18.1z"/>
		
			<linearGradient id="SVGID_00000082328382090704089970000005648803272245174190_" gradientUnits="userSpaceOnUse" x1="301.169" y1="530.7853" x2="372.529" y2="530.7853" gradientTransform="matrix(1 0 0 1 -15.44 -486.99)">
			<stop  offset="0" style="stop-color:#0019F4"/>
			<stop  offset="1" style="stop-color:#7200F1"/>
		</linearGradient>
		<path style="fill:url(#SVGID_00000082328382090704089970000005648803272245174190_);" d="M293.9,46.5c-2.7,1.1-4,1.6-6.5,2.6
			c-0.9,0.3-1.6-0.9-1.6-2.8s0.7-3.8,1.6-4.3c2.5-1.3,3.8-2,6.5-3.4c1-0.5,1.8,0.8,1.8,3.1S294.8,46.1,293.9,46.5z"/>
		
			<linearGradient id="SVGID_00000051360723190915336240000000565842040008286100_" gradientUnits="userSpaceOnUse" x1="301.169" y1="553.3135" x2="372.529" y2="553.3135" gradientTransform="matrix(1 0 0 1 -15.44 -486.99)">
			<stop  offset="0" style="stop-color:#0019F4"/>
			<stop  offset="1" style="stop-color:#7200F1"/>
		</linearGradient>
		<path style="fill:url(#SVGID_00000051360723190915336240000000565842040008286100_);" d="M297.3,70.6c-4,0-6.1,0-10-0.1
			c-0.9,0-1.7-1.6-1.7-3.5s0.7-3.5,1.7-3.6c3.9-0.4,5.9-0.7,10-1.3c1-0.1,1.8,1.7,1.8,4.2C299.1,68.6,298.3,70.6,297.3,70.6z"/>
		
			<linearGradient id="SVGID_00000109737256526636120900000008517565518035950502_" gradientUnits="userSpaceOnUse" x1="301.169" y1="552.4641" x2="372.529" y2="552.4641" gradientTransform="matrix(1 0 0 1 -15.44 -486.99)">
			<stop  offset="0" style="stop-color:#0019F4"/>
			<stop  offset="1" style="stop-color:#7200F1"/>
		</linearGradient>
		<path style="fill:url(#SVGID_00000109737256526636120900000008517565518035950502_);" d="M312.7,70.9c-4-0.2-6.1-0.2-10.4-0.3
			c-1,0-1.8-2-1.7-4.5c0-2.5,0.8-4.6,1.8-4.8c4.3-0.6,6.5-0.9,10.4-1.2c0.9-0.1,1.6,2.3,1.6,5.4C314.3,68.6,313.6,70.9,312.7,70.9z"
			/>
		
			<linearGradient id="SVGID_00000163754200904050668960000000006664889026502017_" gradientUnits="userSpaceOnUse" x1="301.169" y1="536.9593" x2="372.529" y2="536.9593" gradientTransform="matrix(1 0 0 1 -15.44 -486.99)">
			<stop  offset="0" style="stop-color:#0019F4"/>
			<stop  offset="1" style="stop-color:#7200F1"/>
		</linearGradient>
		<path style="fill:url(#SVGID_00000163754200904050668960000000006664889026502017_);" d="M312.8,54.8c-2.4,0.4-3.7,0.6-6.4,1.1
			c-1,0.2-1.7-1.8-1.7-4.5c0-2.6,0.8-5,1.8-5.3c2.6-0.9,3.9-1.3,6.3-2c0.9-0.3,1.6,2,1.6,5S313.6,54.7,312.8,54.8z"/>
		
			<linearGradient id="SVGID_00000076567035989069188320000003577137636427846034_" gradientUnits="userSpaceOnUse" x1="301.169" y1="540.6581" x2="372.529" y2="540.6581" gradientTransform="matrix(1 0 0 1 -15.44 -486.99)">
			<stop  offset="0" style="stop-color:#0019F4"/>
			<stop  offset="1" style="stop-color:#7200F1"/>
		</linearGradient>
		<path style="fill:url(#SVGID_00000076567035989069188320000003577137636427846034_);" d="M301.4,56.9c-5.7,1.2-8.7,1.9-14.1,2.8
			c-0.9,0.2-1.7-1.3-1.7-3.2s0.7-3.7,1.6-4c5.4-1.7,8.4-2.8,14.1-4.8c1-0.3,1.8,1.5,1.8,4S302.4,56.7,301.4,56.9z"/>
		
			<linearGradient id="SVGID_00000087384140222269299030000005178903584964094632_" gradientUnits="userSpaceOnUse" x1="301.169" y1="576.8643" x2="372.529" y2="576.8643" gradientTransform="matrix(1 0 0 1 -15.44 -486.99)">
			<stop  offset="0" style="stop-color:#0019F4"/>
			<stop  offset="1" style="stop-color:#7200F1"/>
		</linearGradient>
		<path style="fill:url(#SVGID_00000087384140222269299030000005178903584964094632_);" d="M297.2,95.1c-4-1.3-6-2-9.9-3.3
			c-0.9-0.3-1.7-2.2-1.7-4.1s0.8-3.3,1.7-3c3.9,1,5.9,1.5,9.9,2.5c1,0.2,1.7,2.3,1.7,4.5C299,93.9,298.2,95.4,297.2,95.1z"/>
		
			<linearGradient id="SVGID_00000046329166284228529640000013980782241672790402_" gradientUnits="userSpaceOnUse" x1="301.169" y1="581.4155" x2="372.529" y2="581.4155" gradientTransform="matrix(1 0 0 1 -15.44 -486.99)">
			<stop  offset="0" style="stop-color:#0019F4"/>
			<stop  offset="1" style="stop-color:#7200F1"/>
		</linearGradient>
		<path style="fill:url(#SVGID_00000046329166284228529640000013980782241672790402_);" d="M312.6,100.4c-4.1-1.5-6.2-2.2-10.5-3.6
			c-0.9-0.3-1.7-2.3-1.7-4.6s0.8-4,1.8-3.7c4.2,1,6.3,1.6,10.4,2.8c0.9,0.3,1.7,2.7,1.7,5.2S313.6,100.7,312.6,100.4z"/>
		
			<linearGradient id="SVGID_00000030486436136702948780000007069045826696990618_" gradientUnits="userSpaceOnUse" x1="301.169" y1="567.871" x2="372.529" y2="567.871" gradientTransform="matrix(1 0 0 1 -15.44 -486.99)">
			<stop  offset="0" style="stop-color:#0019F4"/>
			<stop  offset="1" style="stop-color:#7200F1"/>
		</linearGradient>
		<path style="fill:url(#SVGID_00000030486436136702948780000007069045826696990618_);" d="M312.7,86.3c-2.5-0.6-3.8-0.9-6.5-1.4
			c-1-0.2-1.7-2.4-1.7-4.9s0.8-4.6,1.8-4.5c2.6,0.2,3.9,0.3,6.4,0.7c0.9,0.1,1.6,2.6,1.6,5.5S313.6,86.5,312.7,86.3z"/>
		
			<linearGradient id="SVGID_00000090975684414226061660000008654526339740816554_" gradientUnits="userSpaceOnUse" x1="301.169" y1="587.0142" x2="372.529" y2="587.0142" gradientTransform="matrix(1 0 0 1 -15.44 -486.99)">
			<stop  offset="0" style="stop-color:#0019F4"/>
			<stop  offset="1" style="stop-color:#7200F1"/>
		</linearGradient>
		<path style="fill:url(#SVGID_00000090975684414226061660000008654526339740816554_);" d="M293.9,104.9l-6.5-2.6
			c-1-0.4-1.7-2.2-1.7-4.2s0.8-3.2,1.7-2.9c2.6,1,3.9,1.4,6.5,2.4c1,0.3,1.7,2.3,1.7,4.3S294.9,105.2,293.9,104.9z"/>
		
			<linearGradient id="SVGID_00000086693183468062443750000009871904743587345568_" gradientUnits="userSpaceOnUse" x1="301.169" y1="592.8696" x2="372.529" y2="592.8696" gradientTransform="matrix(1 0 0 1 -15.44 -486.99)">
			<stop  offset="0" style="stop-color:#0019F4"/>
			<stop  offset="1" style="stop-color:#7200F1"/>
		</linearGradient>
		<path style="fill:url(#SVGID_00000086693183468062443750000009871904743587345568_);" d="M312.6,112.3c-5.6-2.2-8.3-3.3-13.8-5.5
			c-1-0.4-1.7-2.2-1.7-4.2s0.8-3.4,1.7-3.1c5.5,2,8.3,3,13.8,5.1c0.9,0.4,1.7,2.5,1.7,4.7S313.6,112.6,312.6,112.3z"/>
		
			<linearGradient id="SVGID_00000027587961596617816460000018072711808619017137_" gradientUnits="userSpaceOnUse" x1="301.169" y1="544.7794" x2="372.529" y2="544.7794" gradientTransform="matrix(1 0 0 1 -15.44 -486.99)">
			<stop  offset="0" style="stop-color:#0019F4"/>
			<stop  offset="1" style="stop-color:#7200F1"/>
		</linearGradient>
		<path style="fill:url(#SVGID_00000027587961596617816460000018072711808619017137_);" d="M354,16.8L325.5,1.1
			c-2.8-1.5-6.3-0.4-7.8,2.4c-0.4,0.8-0.7,1.8-0.7,2.7v103.2c0,3.2,2.5,5.8,5.7,5.8c0.6,0,1.2-0.1,1.7-0.3l28.5-9.1
			c2.4-0.8,4.1-3,4.1-5.5V21.9C357,19.7,355.9,17.8,354,16.8z M345.5,22.5l-11.7,3.1c-0.8,0.3-1.4,1-1.4,1.9v67.4
			c0,0.8,0.4,1.4,1.1,1.8l8.3,3.2c1,0.5,1.3,1.7,0.8,2.7c-0.3,0.6-1,1-1.7,1.1l-14.1,3.6c-1.1,0-2-0.9-2-2V11.5c0-1.1,0.9-2,2-2
			c0.3,0,0.6,0.1,0.8,0.2l18.1,9.1c1,0.5,1.4,1.7,0.9,2.7C346.4,21.9,346,22.3,345.5,22.5z"/>
	</g>
	
		<linearGradient id="SVGID_00000036932128884078551860000010735363626515484058_" gradientUnits="userSpaceOnUse" x1="16.59" y1="544.7183" x2="50.77" y2="544.7183" gradientTransform="matrix(1 0 0 1 -15.44 -486.99)">
		<stop  offset="0" style="stop-color:#0019F4"/>
		<stop  offset="1" style="stop-color:#7200F1"/>
	</linearGradient>
	<path style="fill:url(#SVGID_00000036932128884078551860000010735363626515484058_);" d="M1.1,87.7V27.8c0-1.6,1.3-2.8,2.8-2.8l0,0
		h3.5c1.1,0,2.2,0.7,2.6,1.7l13.8,31.7c0.2,0.4,0.7,0.6,1.1,0.4c0.3-0.1,0.5-0.4,0.5-0.8V27.8c0-1.6,1.3-2.8,2.8-2.8l0,0h4.2
		c1.6,0,2.8,1.3,2.8,2.8v59.9c0,1.6-1.3,2.8-2.8,2.8h-3c-1.1,0-2.2-0.7-2.6-1.7l-14-33.4c-0.2-0.4-0.7-0.6-1.1-0.5
		c-0.3,0.1-0.5,0.5-0.5,0.8v32c0,1.6-1.3,2.8-2.8,2.8l0,0H4C2.4,90.6,1.1,89.3,1.1,87.7C1.1,87.8,1.1,87.7,1.1,87.7z"/>
	
		<linearGradient id="SVGID_00000055687207804708354840000015271782344512631941_" gradientUnits="userSpaceOnUse" x1="58.96" y1="544.7562" x2="93.49" y2="544.7562" gradientTransform="matrix(1 0 0 1 -15.44 -486.99)">
		<stop  offset="0" style="stop-color:#0019F4"/>
		<stop  offset="1" style="stop-color:#7200F1"/>
	</linearGradient>
	<path style="fill:url(#SVGID_00000055687207804708354840000015271782344512631941_);" d="M61.6,91.4c-10.8,0-16.8-5.8-18-17.5
		c-0.1-1.4,0.8-2.7,2.2-3l4.8-1c1.5-0.3,3,0.7,3.4,2.2c0,0.1,0,0.2,0,0.3c0.7,6.6,3.1,9.9,7.2,9.9c1.5,0.1,3-0.5,4.1-1.7
		c0.9-1.3,1.4-2.9,1.3-4.5c0-1.7-0.3-3.4-1-5c-0.6-1.4-1.3-2.6-2.3-3.7c-1.2-1.3-2.4-2.5-3.7-3.6l-8.7-7.5c-2.3-1.9-4.2-4.3-5.7-6.9
		c-1.3-2.8-2-5.9-1.9-9c0-5.1,1.5-9,4.5-11.9s7.1-4.2,12.3-4.3c2.2-0.1,4.3,0.2,6.4,0.9c1.7,0.5,3.2,1.4,4.6,2.5
		c1.2,1.1,2.3,2.4,3,3.9c0.8,1.5,1.4,3.2,1.8,4.8c0.2,1,0.4,1.9,0.5,2.9c0.2,1.5-0.8,2.9-2.2,3.2l-4.5,0.9c-1.5,0.3-3-0.7-3.3-2.2
		c0-0.1,0-0.2,0-0.2c0-0.1,0-0.2,0-0.3c-0.1-1-0.3-2-0.6-3c-0.2-0.9-0.6-1.7-1.1-2.4c-0.5-0.6-1.1-1.1-1.9-1.5
		c-0.8-0.4-1.8-0.5-2.7-0.4c-1.5,0-3,0.6-4.1,1.8c-1,1.2-1.5,2.7-1.4,4.3c-0.1,1.8,0.4,3.6,1.2,5.2c1.1,1.6,2.4,3.1,3.9,4.4l8.5,7.4
		c1.3,1.2,2.6,2.4,3.7,3.8c1.1,1.3,2.1,2.7,3,4.2c1,1.6,1.7,3.3,2.2,5.1c0.5,1.9,0.8,3.9,0.8,5.9c0.2,4.3-1.5,8.5-4.5,11.6
		C70.5,89.9,66.5,91.4,61.6,91.4z"/>
	
		<linearGradient id="SVGID_00000010312388197671070790000014111946759110039228_" gradientUnits="userSpaceOnUse" x1="99.4467" y1="544.7173" x2="135.8215" y2="544.7173" gradientTransform="matrix(1 0 0 1 -15.44 -486.99)">
		<stop  offset="0" style="stop-color:#0019F4"/>
		<stop  offset="1" style="stop-color:#7200F1"/>
	</linearGradient>
	<path style="fill:url(#SVGID_00000010312388197671070790000014111946759110039228_);" d="M102.6,91.3c-2.5,0-5.1-0.3-7.5-1.1
		c-2-0.6-3.8-1.6-5.4-3c-1.5-1.3-2.6-2.9-3.4-4.7c-0.9-1.9-1.5-3.9-1.9-6c-0.4-2.4-0.5-4.8-0.5-7.3V46.4c0-2.5,0.2-5.1,0.6-7.6
		c0.3-2.1,1-4.2,1.9-6.1c0.8-1.8,2-3.4,3.4-4.6c1.6-1.3,3.4-2.3,5.3-2.9c2.4-0.7,5-1.1,7.5-1c2.9-0.1,5.7,0.4,8.4,1.3
		c2.1,0.8,4,2.1,5.5,3.9c1.4,1.7,2.4,3.8,2.9,5.9c0.6,2.6,1,5.2,0.9,7.9V46c0,1.6-1.3,2.8-2.8,2.8h-5.8c-1.6,0-2.8-1.3-2.8-2.8v-2.8
		c0.1-2.2-0.1-4.4-0.5-6.6c-0.7-2.2-2.4-3.4-5-3.6h-0.6c-0.9,0-1.8,0.1-2.6,0.3c-0.7,0.2-1.3,0.6-1.8,1.1s-0.8,1-1.1,1.6
		c-0.3,0.7-0.5,1.5-0.6,2.3c-0.1,0.9-0.2,1.8-0.3,2.6s-0.1,1.8-0.1,3v27.8c0,3.8,0.5,6.6,1.4,8.2c1,1.6,2.7,2.5,5.2,2.5
		c0.8,0,1.5-0.1,2.2-0.3c0.6-0.2,1.1-0.4,1.6-0.8c0.5-0.3,0.8-0.8,1.1-1.3c0.3-0.5,0.5-1,0.7-1.6c0.2-0.7,0.3-1.3,0.4-2
		c0.1-0.9,0.1-1.6,0.1-2.2s0-1.4,0-2.5v-3c0-1.6,1.3-2.8,2.8-2.8h5.8c1.6,0,2.8,1.3,2.8,2.8v2.7c0,2.2-0.2,4.4-0.5,6.6
		c-0.3,1.9-0.9,3.7-1.8,5.4c-0.8,1.6-1.9,3.1-3.2,4.3c-1.5,1.2-3.2,2.2-5.1,2.7C107.4,91.1,105,91.4,102.6,91.3z"/>
	
		<linearGradient id="SVGID_00000017510309751059335420000011836443924827581870_" gradientUnits="userSpaceOnUse" x1="142.99" y1="544.7173" x2="179.39" y2="544.7173" gradientTransform="matrix(1 0 0 1 -15.44 -486.99)">
		<stop  offset="0" style="stop-color:#0019F4"/>
		<stop  offset="1" style="stop-color:#7200F1"/>
	</linearGradient>
	<path style="fill:url(#SVGID_00000017510309751059335420000011836443924827581870_);" d="M146.2,91.3c-2.5,0-5.1-0.3-7.5-1.1
		c-2-0.6-3.8-1.6-5.4-3c-1.4-1.3-2.6-2.9-3.4-4.7c-0.9-1.9-1.5-3.9-1.9-6c-0.4-2.4-0.5-4.8-0.5-7.3V46.4c0-2.5,0.2-5.1,0.6-7.6
		c0.3-2.1,1-4.1,1.8-6.1c0.8-1.8,2-3.4,3.4-4.6c1.6-1.3,3.4-2.3,5.3-2.9c2.4-0.7,5-1.1,7.5-1c2.8-0.1,5.7,0.4,8.4,1.3
		c2.2,0.8,4.1,2.1,5.5,3.8c1.3,1.7,2.3,3.8,2.9,5.9c0.6,2.6,0.9,5.2,0.9,7.9v2.8c0,1.6-1.3,2.8-2.8,2.8l0,0h-5.8
		c-1.6,0-2.8-1.3-2.8-2.8l0,0v-2.7c0.1-2.2-0.1-4.4-0.5-6.6c-0.7-2.2-2.4-3.4-5-3.6h-0.6c-0.9,0-1.8,0.1-2.6,0.3
		c-0.7,0.2-1.3,0.6-1.8,1.1s-0.8,1-1.1,1.6c-0.3,0.7-0.5,1.5-0.6,2.2c-0.1,0.9-0.2,1.7-0.3,2.6c0,0.8-0.1,1.8-0.1,3v27.8
		c0,3.8,0.5,6.6,1.4,8.2c1,1.6,2.7,2.5,5.2,2.5c0.8,0,1.5-0.1,2.2-0.3c0.6-0.2,1.1-0.4,1.6-0.8c0.5-0.3,0.9-0.8,1.1-1.3
		c0.3-0.5,0.5-1,0.7-1.6c0.2-0.7,0.3-1.3,0.4-2c0.1-0.9,0.1-1.6,0.1-2.2s0-1.4,0-2.5v-3c0-1.6,1.3-2.8,2.8-2.8l0,0h5.8
		c1.6,0,2.8,1.3,2.8,2.8l0,0v2.8c0,2.2-0.2,4.4-0.5,6.6c-0.3,1.9-0.9,3.7-1.7,5.4c-0.8,1.6-1.9,3.1-3.2,4.3
		c-1.5,1.2-3.2,2.2-5.1,2.7C151,91.1,148.6,91.4,146.2,91.3z"/>
	
		<linearGradient id="SVGID_00000074408626464415902670000016705705803241500338_" gradientUnits="userSpaceOnUse" x1="185.8665" y1="544.6687" x2="237.79" y2="544.6687" gradientTransform="matrix(1 0 0 1 -15.44 -486.99)">
		<stop  offset="0" style="stop-color:#0019F4"/>
		<stop  offset="1" style="stop-color:#7200F1"/>
	</linearGradient>
	<path style="fill:url(#SVGID_00000074408626464415902670000016705705803241500338_);" d="M179,88.1l-8.6-59.9
		c-0.2-1.6,0.9-3,2.4-3.2c0.1,0,0.3,0,0.4,0h4.3c1.4,0,2.6,1,2.8,2.4l4.3,34c0.1,0.5,0.5,0.8,1,0.7c0.4-0.1,0.7-0.3,0.7-0.7
		l5.7-34.1c0.2-1.4,1.4-2.4,2.8-2.4h3.2c1.4,0,2.6,1,2.8,2.4l5.8,34.3c0.1,0.5,0.5,0.8,1,0.7c0.4-0.1,0.7-0.3,0.7-0.7l4.3-34.1
		c0.2-1.4,1.4-2.5,2.8-2.5h4.1c1.6,0,2.8,1.3,2.8,2.8c0,0.1,0,0.3,0,0.4l-8.6,59.9c-0.2,1.4-1.4,2.4-2.8,2.4h-4.7
		c-1.4,0-2.6-1-2.8-2.4l-6.1-36.4c-0.1-0.5-0.5-0.8-1-0.7c-0.4,0.1-0.7,0.3-0.7,0.7l-6.1,36.4c-0.2,1.4-1.4,2.4-2.8,2.4h-5
		C180.4,90.6,179.2,89.5,179,88.1z"/>
	
		<linearGradient id="SVGID_00000168835931166529487130000017644870358590947767_" gradientUnits="userSpaceOnUse" x1="242.978" y1="544.7698" x2="279.0791" y2="544.7698" gradientTransform="matrix(1 0 0 1 -15.44 -486.99)">
		<stop  offset="0" style="stop-color:#0019F4"/>
		<stop  offset="1" style="stop-color:#7200F1"/>
	</linearGradient>
	<path style="fill:url(#SVGID_00000168835931166529487130000017644870358590947767_);" d="M227.7,86.7L239,56.8
		c0.3-0.7,0.3-1.4,0-2.1l-10.8-25.8c-0.6-1.4,0.1-3.1,1.5-3.7c0.3-0.1,0.7-0.2,1.1-0.2h5.1c1.1,0,2.2,0.7,2.6,1.7l6.9,16.6
		c0.2,0.4,0.7,0.6,1.1,0.5c0.2-0.1,0.4-0.3,0.5-0.5l5.9-16.4c0.4-1.1,1.5-1.9,2.7-1.9h4.4c1.6,0,2.8,1.3,2.8,2.8
		c0,0.3-0.1,0.7-0.2,1l-10.8,28c-0.3,0.7-0.3,1.4,0,2.1l11.6,27.8c0.6,1.4-0.1,3.1-1.5,3.7c-0.3,0.1-0.7,0.2-1.1,0.2h-5
		c-1.1,0-2.2-0.7-2.6-1.7l-7.6-18.2c-0.2-0.4-0.7-0.6-1.1-0.5c-0.2,0.1-0.4,0.3-0.5,0.5l-6.6,18.1c-0.4,1.1-1.5,1.9-2.7,1.8h-4.3
		c-1.6,0-2.8-1.3-2.8-2.8C227.5,87.4,227.6,87,227.7,86.7z"/>
	<path class="st36" d="M1.1,87.7V27.8c0-1.6,1.3-2.8,2.8-2.8l0,0h3.5c1.1,0,2.2,0.7,2.6,1.7l13.8,31.7c0.2,0.4,0.7,0.6,1.1,0.4
		c0.3-0.1,0.5-0.4,0.5-0.8V27.8c0-1.6,1.3-2.8,2.8-2.8l0,0h4.2c1.6,0,2.8,1.3,2.8,2.8v59.9c0,1.6-1.3,2.8-2.8,2.8h-3
		c-1.1,0-2.2-0.7-2.6-1.7l-14-33.4c-0.2-0.4-0.7-0.6-1.1-0.5c-0.3,0.1-0.5,0.5-0.5,0.8v32c0,1.6-1.3,2.8-2.8,2.8l0,0H4
		C2.4,90.6,1.1,89.3,1.1,87.7C1.1,87.8,1.1,87.7,1.1,87.7z"/>
	<path class="st36" d="M61.6,91.4c-10.8,0-16.8-5.8-18-17.5c-0.1-1.4,0.8-2.7,2.2-3l4.8-1c1.5-0.3,3,0.7,3.4,2.2c0,0.1,0,0.2,0,0.3
		c0.7,6.6,3.1,9.9,7.2,9.9c1.5,0.1,3-0.5,4.1-1.7c0.9-1.3,1.4-2.9,1.3-4.5c0-1.7-0.3-3.4-1-5c-0.6-1.4-1.3-2.6-2.3-3.7
		c-1.2-1.3-2.4-2.5-3.7-3.6l-8.7-7.5c-2.3-1.9-4.2-4.3-5.7-6.9c-1.3-2.8-2-5.9-1.9-9c0-5.1,1.5-9,4.5-11.9s7.1-4.2,12.3-4.3
		c2.2-0.1,4.3,0.2,6.4,0.9c1.7,0.5,3.2,1.4,4.6,2.5c1.2,1.1,2.3,2.4,3,3.9c0.8,1.5,1.4,3.2,1.8,4.8c0.2,1,0.4,1.9,0.5,2.9
		c0.2,1.5-0.8,2.9-2.2,3.2l-4.5,0.9c-1.5,0.3-3-0.7-3.3-2.2c0-0.1,0-0.2,0-0.2c0-0.1,0-0.2,0-0.3c-0.1-1-0.3-2-0.6-3
		c-0.2-0.9-0.6-1.7-1.1-2.4c-0.5-0.6-1.1-1.1-1.9-1.5c-0.8-0.4-1.8-0.5-2.7-0.4c-1.5,0-3,0.6-4.1,1.8c-1,1.2-1.5,2.7-1.4,4.3
		c-0.1,1.8,0.4,3.6,1.2,5.2c1.1,1.6,2.4,3.1,3.9,4.4l8.5,7.4c1.3,1.2,2.6,2.4,3.7,3.8c1.1,1.3,2.1,2.7,3,4.2c1,1.6,1.7,3.3,2.2,5.1
		c0.5,1.9,0.8,3.9,0.8,5.9c0.2,4.3-1.5,8.5-4.5,11.6C70.5,89.9,66.5,91.4,61.6,91.4z"/>
	<path class="st36" d="M102.6,91.3c-2.5,0-5.1-0.3-7.5-1.1c-2-0.6-3.8-1.6-5.4-3c-1.5-1.3-2.6-2.9-3.4-4.7c-0.9-1.9-1.5-3.9-1.9-6
		c-0.4-2.4-0.5-4.8-0.5-7.3V46.4c0-2.5,0.2-5.1,0.6-7.6c0.3-2.1,1-4.2,1.9-6.1c0.8-1.8,2-3.4,3.4-4.6c1.6-1.3,3.4-2.3,5.3-2.9
		c2.4-0.7,5-1.1,7.5-1c2.9-0.1,5.7,0.4,8.4,1.3c2.1,0.8,4,2.1,5.5,3.9c1.4,1.7,2.4,3.8,2.9,5.9c0.6,2.6,1,5.2,0.9,7.9V46
		c0,1.6-1.3,2.8-2.8,2.8h-5.8c-1.6,0-2.8-1.3-2.8-2.8v-2.8c0.1-2.2-0.1-4.4-0.5-6.6c-0.7-2.2-2.4-3.4-5-3.6h-0.6
		c-0.9,0-1.8,0.1-2.6,0.3c-0.7,0.2-1.3,0.6-1.8,1.1s-0.8,1-1.1,1.6c-0.3,0.7-0.5,1.5-0.6,2.3c-0.1,0.9-0.2,1.8-0.3,2.6
		s-0.1,1.8-0.1,3v27.8c0,3.8,0.5,6.6,1.4,8.2c1,1.6,2.7,2.5,5.2,2.5c0.8,0,1.5-0.1,2.2-0.3c0.6-0.2,1.1-0.4,1.6-0.8
		c0.5-0.3,0.8-0.8,1.1-1.3c0.3-0.5,0.5-1,0.7-1.6c0.2-0.7,0.3-1.3,0.4-2c0.1-0.9,0.1-1.6,0.1-2.2s0-1.4,0-2.5v-3
		c0-1.6,1.3-2.8,2.8-2.8h5.8c1.6,0,2.8,1.3,2.8,2.8v2.7c0,2.2-0.2,4.4-0.5,6.6c-0.3,1.9-0.9,3.7-1.8,5.4c-0.8,1.6-1.9,3.1-3.2,4.3
		c-1.5,1.2-3.2,2.2-5.1,2.7C107.4,91.1,105,91.4,102.6,91.3z"/>
	<path class="st36" d="M146.2,91.3c-2.5,0-5.1-0.3-7.5-1.1c-2-0.6-3.8-1.6-5.4-3c-1.4-1.3-2.6-2.9-3.4-4.7c-0.9-1.9-1.5-3.9-1.9-6
		c-0.4-2.4-0.5-4.8-0.5-7.3V46.4c0-2.5,0.2-5.1,0.6-7.6c0.3-2.1,1-4.1,1.8-6.1c0.8-1.8,2-3.4,3.4-4.6c1.6-1.3,3.4-2.3,5.3-2.9
		c2.4-0.7,5-1.1,7.5-1c2.8-0.1,5.7,0.4,8.4,1.3c2.2,0.8,4.1,2.1,5.5,3.8c1.3,1.7,2.3,3.8,2.9,5.9c0.6,2.6,0.9,5.2,0.9,7.9v2.8
		c0,1.6-1.3,2.8-2.8,2.8l0,0h-5.8c-1.6,0-2.8-1.3-2.8-2.8l0,0v-2.7c0.1-2.2-0.1-4.4-0.5-6.6c-0.7-2.2-2.4-3.4-5-3.6h-0.6
		c-0.9,0-1.8,0.1-2.6,0.3c-0.7,0.2-1.3,0.6-1.8,1.1s-0.8,1-1.1,1.6c-0.3,0.7-0.5,1.5-0.6,2.2c-0.1,0.9-0.2,1.7-0.3,2.6
		c0,0.8-0.1,1.8-0.1,3v27.8c0,3.8,0.5,6.6,1.4,8.2c1,1.6,2.7,2.5,5.2,2.5c0.8,0,1.5-0.1,2.2-0.3c0.6-0.2,1.1-0.4,1.6-0.8
		c0.5-0.3,0.9-0.8,1.1-1.3c0.3-0.5,0.5-1,0.7-1.6c0.2-0.7,0.3-1.3,0.4-2c0.1-0.9,0.1-1.6,0.1-2.2s0-1.4,0-2.5v-3
		c0-1.6,1.3-2.8,2.8-2.8l0,0h5.8c1.6,0,2.8,1.3,2.8,2.8l0,0v2.8c0,2.2-0.2,4.4-0.5,6.6c-0.3,1.9-0.9,3.7-1.7,5.4
		c-0.8,1.6-1.9,3.1-3.2,4.3c-1.5,1.2-3.2,2.2-5.1,2.7C151,91.1,148.6,91.4,146.2,91.3z"/>
	<path class="st36" d="M179,88.1l-8.6-59.9c-0.2-1.6,0.9-3,2.4-3.2c0.1,0,0.3,0,0.4,0h4.3c1.4,0,2.6,1,2.8,2.4l4.3,34
		c0.1,0.5,0.5,0.8,1,0.7c0.4-0.1,0.7-0.3,0.7-0.7l5.7-34.1c0.2-1.4,1.4-2.4,2.8-2.4h3.2c1.4,0,2.6,1,2.8,2.4l5.8,34.3
		c0.1,0.5,0.5,0.8,1,0.7c0.4-0.1,0.7-0.3,0.7-0.7l4.3-34.1c0.2-1.4,1.4-2.5,2.8-2.5h4.1c1.6,0,2.8,1.3,2.8,2.8c0,0.1,0,0.3,0,0.4
		l-8.6,59.9c-0.2,1.4-1.4,2.4-2.8,2.4h-4.7c-1.4,0-2.6-1-2.8-2.4l-6.1-36.4c-0.1-0.5-0.5-0.8-1-0.7c-0.4,0.1-0.7,0.3-0.7,0.7
		l-6.1,36.4c-0.2,1.4-1.4,2.4-2.8,2.4h-5C180.4,90.6,179.2,89.5,179,88.1z"/>
	<path class="st36" d="M227.7,86.7L239,56.8c0.3-0.7,0.3-1.4,0-2.1l-10.8-25.8c-0.6-1.4,0.1-3.1,1.5-3.7c0.3-0.1,0.7-0.2,1.1-0.2
		h5.1c1.1,0,2.2,0.7,2.6,1.7l6.9,16.6c0.2,0.4,0.7,0.6,1.1,0.5c0.2-0.1,0.4-0.3,0.5-0.5l5.9-16.4c0.4-1.1,1.5-1.9,2.7-1.9h4.4
		c1.6,0,2.8,1.3,2.8,2.8c0,0.3-0.1,0.7-0.2,1l-10.8,28c-0.3,0.7-0.3,1.4,0,2.1l11.6,27.8c0.6,1.4-0.1,3.1-1.5,3.7
		c-0.3,0.1-0.7,0.2-1.1,0.2h-5c-1.1,0-2.2-0.7-2.6-1.7l-7.6-18.2c-0.2-0.4-0.7-0.6-1.1-0.5c-0.2,0.1-0.4,0.3-0.5,0.5l-6.6,18.1
		c-0.4,1.1-1.5,1.9-2.7,1.8h-4.3c-1.6,0-2.8-1.3-2.8-2.8C227.5,87.4,227.6,87,227.7,86.7z"/>
	
		<linearGradient id="SVGID_00000128445626452586142400000016364278231884779139_" gradientUnits="userSpaceOnUse" x1="16.59" y1="544.7183" x2="279.14" y2="544.7183" gradientTransform="matrix(1 0 0 1 -15.44 -486.99)">
		<stop  offset="0" style="stop-color:#0019F4"/>
		<stop  offset="1" style="stop-color:#7200F1"/>
	</linearGradient>
	<path style="fill:url(#SVGID_00000128445626452586142400000016364278231884779139_);" d="M1.1,87.7V27.8c0-1.6,1.3-2.8,2.8-2.8l0,0
		h3.5c1.1,0,2.2,0.7,2.6,1.7l13.8,31.7c0.2,0.4,0.7,0.6,1.1,0.4c0.3-0.1,0.5-0.4,0.5-0.8V27.8c0-1.6,1.3-2.8,2.8-2.8l0,0h4.2
		c1.6,0,2.8,1.3,2.8,2.8v59.9c0,1.6-1.3,2.8-2.8,2.8h-3c-1.1,0-2.2-0.7-2.6-1.7l-14-33.4c-0.2-0.4-0.7-0.6-1.1-0.5
		c-0.3,0.1-0.5,0.5-0.5,0.8v32c0,1.6-1.3,2.8-2.8,2.8l0,0H4C2.4,90.6,1.1,89.3,1.1,87.7C1.1,87.8,1.1,87.7,1.1,87.7z"/>
	
		<linearGradient id="SVGID_00000145051285845959512490000004344223252229397908_" gradientUnits="userSpaceOnUse" x1="16.56" y1="544.7562" x2="279.11" y2="544.7562" gradientTransform="matrix(1 0 0 1 -15.44 -486.99)">
		<stop  offset="0" style="stop-color:#0019F4"/>
		<stop  offset="1" style="stop-color:#7200F1"/>
	</linearGradient>
	<path style="fill:url(#SVGID_00000145051285845959512490000004344223252229397908_);" d="M61.6,91.4c-10.8,0-16.8-5.8-18-17.5
		c-0.1-1.4,0.8-2.7,2.2-3l4.8-1c1.5-0.3,3,0.7,3.4,2.2c0,0.1,0,0.2,0,0.3c0.7,6.6,3.1,9.9,7.2,9.9c1.5,0.1,3-0.5,4.1-1.7
		c0.9-1.3,1.4-2.9,1.3-4.5c0-1.7-0.3-3.4-1-5c-0.6-1.4-1.3-2.6-2.3-3.7c-1.2-1.3-2.4-2.5-3.7-3.6l-8.7-7.5c-2.3-1.9-4.2-4.3-5.7-6.9
		c-1.3-2.8-2-5.9-1.9-9c0-5.1,1.5-9,4.5-11.9s7.1-4.2,12.3-4.3c2.2-0.1,4.3,0.2,6.4,0.9c1.7,0.5,3.2,1.4,4.6,2.5
		c1.2,1.1,2.3,2.4,3,3.9c0.8,1.5,1.4,3.2,1.8,4.8c0.2,1,0.4,1.9,0.5,2.9c0.2,1.5-0.8,2.9-2.2,3.2l-4.5,0.9c-1.5,0.3-3-0.7-3.3-2.2
		c0-0.1,0-0.2,0-0.2c0-0.1,0-0.2,0-0.3c-0.1-1-0.3-2-0.6-3c-0.2-0.9-0.6-1.7-1.1-2.4c-0.5-0.6-1.1-1.1-1.9-1.5
		c-0.8-0.4-1.8-0.5-2.7-0.4c-1.5,0-3,0.6-4.1,1.8c-1,1.2-1.5,2.7-1.4,4.3c-0.1,1.8,0.4,3.6,1.2,5.2c1.1,1.6,2.4,3.1,3.9,4.4l8.5,7.4
		c1.3,1.2,2.6,2.4,3.7,3.8c1.1,1.3,2.1,2.7,3,4.2c1,1.6,1.7,3.3,2.2,5.1c0.5,1.9,0.8,3.9,0.8,5.9c0.2,4.3-1.5,8.5-4.5,11.6
		C70.5,89.9,66.5,91.4,61.6,91.4z"/>
	
		<linearGradient id="SVGID_00000076600933188204811010000016153775796486930327_" gradientUnits="userSpaceOnUse" x1="16.56" y1="544.7173" x2="279.11" y2="544.7173" gradientTransform="matrix(1 0 0 1 -15.44 -486.99)">
		<stop  offset="0" style="stop-color:#0019F4"/>
		<stop  offset="1" style="stop-color:#7200F1"/>
	</linearGradient>
	<path style="fill:url(#SVGID_00000076600933188204811010000016153775796486930327_);" d="M102.6,91.3c-2.5,0-5.1-0.3-7.5-1.1
		c-2-0.6-3.8-1.6-5.4-3c-1.5-1.3-2.6-2.9-3.4-4.7c-0.9-1.9-1.5-3.9-1.9-6c-0.4-2.4-0.5-4.8-0.5-7.3V46.4c0-2.5,0.2-5.1,0.6-7.6
		c0.3-2.1,1-4.2,1.9-6.1c0.8-1.8,2-3.4,3.4-4.6c1.6-1.3,3.4-2.3,5.3-2.9c2.4-0.7,5-1.1,7.5-1c2.9-0.1,5.7,0.4,8.4,1.3
		c2.1,0.8,4,2.1,5.5,3.9c1.4,1.7,2.4,3.8,2.9,5.9c0.6,2.6,1,5.2,0.9,7.9V46c0,1.6-1.3,2.8-2.8,2.8h-5.8c-1.6,0-2.8-1.3-2.8-2.8v-2.8
		c0.1-2.2-0.1-4.4-0.5-6.6c-0.7-2.2-2.4-3.4-5-3.6h-0.6c-0.9,0-1.8,0.1-2.6,0.3c-0.7,0.2-1.3,0.6-1.8,1.1s-0.8,1-1.1,1.6
		c-0.3,0.7-0.5,1.5-0.6,2.3c-0.1,0.9-0.2,1.8-0.3,2.6s-0.1,1.8-0.1,3v27.8c0,3.8,0.5,6.6,1.4,8.2c1,1.6,2.7,2.5,5.2,2.5
		c0.8,0,1.5-0.1,2.2-0.3c0.6-0.2,1.1-0.4,1.6-0.8c0.5-0.3,0.8-0.8,1.1-1.3c0.3-0.5,0.5-1,0.7-1.6c0.2-0.7,0.3-1.3,0.4-2
		c0.1-0.9,0.1-1.6,0.1-2.2s0-1.4,0-2.5v-3c0-1.6,1.3-2.8,2.8-2.8h5.8c1.6,0,2.8,1.3,2.8,2.8v2.7c0,2.2-0.2,4.4-0.5,6.6
		c-0.3,1.9-0.9,3.7-1.8,5.4c-0.8,1.6-1.9,3.1-3.2,4.3c-1.5,1.2-3.2,2.2-5.1,2.7C107.4,91.1,105,91.4,102.6,91.3z"/>
	
		<linearGradient id="SVGID_00000103248516169346334180000011021122814747456943_" gradientUnits="userSpaceOnUse" x1="16.56" y1="544.7173" x2="279.11" y2="544.7173" gradientTransform="matrix(1 0 0 1 -15.44 -486.99)">
		<stop  offset="0" style="stop-color:#0019F4"/>
		<stop  offset="1" style="stop-color:#7200F1"/>
	</linearGradient>
	<path style="fill:url(#SVGID_00000103248516169346334180000011021122814747456943_);" d="M146.2,91.3c-2.5,0-5.1-0.3-7.5-1.1
		c-2-0.6-3.8-1.6-5.4-3c-1.4-1.3-2.6-2.9-3.4-4.7c-0.9-1.9-1.5-3.9-1.9-6c-0.4-2.4-0.5-4.8-0.5-7.3V46.4c0-2.5,0.2-5.1,0.6-7.6
		c0.3-2.1,1-4.1,1.8-6.1c0.8-1.8,2-3.4,3.4-4.6c1.6-1.3,3.4-2.3,5.3-2.9c2.4-0.7,5-1.1,7.5-1c2.8-0.1,5.7,0.4,8.4,1.3
		c2.2,0.8,4.1,2.1,5.5,3.8c1.3,1.7,2.3,3.8,2.9,5.9c0.6,2.6,0.9,5.2,0.9,7.9v2.8c0,1.6-1.3,2.8-2.8,2.8l0,0h-5.8
		c-1.6,0-2.8-1.3-2.8-2.8l0,0v-2.7c0.1-2.2-0.1-4.4-0.5-6.6c-0.7-2.2-2.4-3.4-5-3.6h-0.6c-0.9,0-1.8,0.1-2.6,0.3
		c-0.7,0.2-1.3,0.6-1.8,1.1s-0.8,1-1.1,1.6c-0.3,0.7-0.5,1.5-0.6,2.2c-0.1,0.9-0.2,1.7-0.3,2.6c0,0.8-0.1,1.8-0.1,3v27.8
		c0,3.8,0.5,6.6,1.4,8.2c1,1.6,2.7,2.5,5.2,2.5c0.8,0,1.5-0.1,2.2-0.3c0.6-0.2,1.1-0.4,1.6-0.8c0.5-0.3,0.9-0.8,1.1-1.3
		c0.3-0.5,0.5-1,0.7-1.6c0.2-0.7,0.3-1.3,0.4-2c0.1-0.9,0.1-1.6,0.1-2.2s0-1.4,0-2.5v-3c0-1.6,1.3-2.8,2.8-2.8l0,0h5.8
		c1.6,0,2.8,1.3,2.8,2.8l0,0v2.8c0,2.2-0.2,4.4-0.5,6.6c-0.3,1.9-0.9,3.7-1.7,5.4c-0.8,1.6-1.9,3.1-3.2,4.3
		c-1.5,1.2-3.2,2.2-5.1,2.7C151,91.1,148.6,91.4,146.2,91.3z"/>
	
		<linearGradient id="SVGID_00000048469521169953242930000009626637320702047398_" gradientUnits="userSpaceOnUse" x1="16.56" y1="544.6687" x2="279.11" y2="544.6687" gradientTransform="matrix(1 0 0 1 -15.44 -486.99)">
		<stop  offset="0" style="stop-color:#0019F4"/>
		<stop  offset="1" style="stop-color:#7200F1"/>
	</linearGradient>
	<path style="fill:url(#SVGID_00000048469521169953242930000009626637320702047398_);" d="M179,88.1l-8.6-59.9
		c-0.2-1.6,0.9-3,2.4-3.2c0.1,0,0.3,0,0.4,0h4.3c1.4,0,2.6,1,2.8,2.4l4.3,34c0.1,0.5,0.5,0.8,1,0.7c0.4-0.1,0.7-0.3,0.7-0.7
		l5.7-34.1c0.2-1.4,1.4-2.4,2.8-2.4h3.2c1.4,0,2.6,1,2.8,2.4l5.8,34.3c0.1,0.5,0.5,0.8,1,0.7c0.4-0.1,0.7-0.3,0.7-0.7l4.3-34.1
		c0.2-1.4,1.4-2.5,2.8-2.5h4.1c1.6,0,2.8,1.3,2.8,2.8c0,0.1,0,0.3,0,0.4l-8.6,59.9c-0.2,1.4-1.4,2.4-2.8,2.4h-4.7
		c-1.4,0-2.6-1-2.8-2.4l-6.1-36.4c-0.1-0.5-0.5-0.8-1-0.7c-0.4,0.1-0.7,0.3-0.7,0.7l-6.1,36.4c-0.2,1.4-1.4,2.4-2.8,2.4h-5
		C180.4,90.6,179.2,89.5,179,88.1z"/>
	
		<linearGradient id="SVGID_00000085232946388224393290000000151057148217916076_" gradientUnits="userSpaceOnUse" x1="16.56" y1="544.7698" x2="279.11" y2="544.7698" gradientTransform="matrix(1 0 0 1 -15.44 -486.99)">
		<stop  offset="0" style="stop-color:#0019F4"/>
		<stop  offset="1" style="stop-color:#7200F1"/>
	</linearGradient>
	<path style="fill:url(#SVGID_00000085232946388224393290000000151057148217916076_);" d="M227.7,86.7L239,56.8
		c0.3-0.7,0.3-1.4,0-2.1l-10.8-25.8c-0.6-1.4,0.1-3.1,1.5-3.7c0.3-0.1,0.7-0.2,1.1-0.2h5.1c1.1,0,2.2,0.7,2.6,1.7l6.9,16.6
		c0.2,0.4,0.7,0.6,1.1,0.5c0.2-0.1,0.4-0.3,0.5-0.5l5.9-16.4c0.4-1.1,1.5-1.9,2.7-1.9h4.4c1.6,0,2.8,1.3,2.8,2.8
		c0,0.3-0.1,0.7-0.2,1l-10.8,28c-0.3,0.7-0.3,1.4,0,2.1l11.6,27.8c0.6,1.4-0.1,3.1-1.5,3.7c-0.3,0.1-0.7,0.2-1.1,0.2h-5
		c-1.1,0-2.2-0.7-2.6-1.7l-7.6-18.2c-0.2-0.4-0.7-0.6-1.1-0.5c-0.2,0.1-0.4,0.3-0.5,0.5l-6.6,18.1c-0.4,1.1-1.5,1.9-2.7,1.8h-4.3
		c-1.6,0-2.8-1.3-2.8-2.8C227.5,87.4,227.6,87,227.7,86.7z"/>
</g>
</svg>
